<?xml version="1.0" encoding="UTF-8" standalone="no"?>
<!-- Generator: Gravit.io -->

<svg
   style="isolation:isolate"
   viewBox="0 0 45 25"
   width="45"
   height="25"
   version="1.1"
   id="svg11496"
   sodipodi:docname="switch-insensitive.svg"
   inkscape:version="1.3.2 (091e20ef0f, 2023-11-25)"
   xmlns:inkscape="http://www.inkscape.org/namespaces/inkscape"
   xmlns:sodipodi="http://sodipodi.sourceforge.net/DTD/sodipodi-0.dtd"
   xmlns="http://www.w3.org/2000/svg"
   xmlns:svg="http://www.w3.org/2000/svg">
  <defs
     id="defs11500">
    <filter
       inkscape:collect="always"
       style="color-interpolation-filters:sRGB"
       id="filter930"
       x="-0.035999999"
       width="1.072"
       y="-0.035999999"
       height="1.072">
      <feGaussianBlur
         inkscape:collect="always"
         stdDeviation="0.225"
         id="feGaussianBlur932" />
    </filter>
  </defs>
  <sodipodi:namedview
     id="namedview11498"
     pagecolor="#ffffff"
     bordercolor="#000000"
     borderopacity="0.25"
     inkscape:showpageshadow="2"
     inkscape:pageopacity="0.0"
     inkscape:pagecheckerboard="0"
     inkscape:deskcolor="#d1d1d1"
     showgrid="false"
     inkscape:zoom="8.9378297"
     inkscape:cx="-17.39796"
     inkscape:cy="7.160575"
     inkscape:window-width="2560"
     inkscape:window-height="1372"
     inkscape:window-x="0"
     inkscape:window-y="0"
     inkscape:window-maximized="1"
     inkscape:current-layer="svg11496"
     showguides="true">
    <sodipodi:guide
       position="-2.4894187,23.489566"
       orientation="0,-1"
       id="guide8"
       inkscape:locked="false" />
  </sodipodi:namedview>
  <path
     style="fill:#000000;fill-opacity:0.1;stroke-width:1.17261"
     d="M 0.02441375,12.464074 A 11.875,10.45 0 0 0 0,13.108606 a 11.875,10.45 0 0 0 11.875,10.45 h 9.375 2.5 9.375 A 11.875,10.45 0 0 0 45,13.108606 11.875,10.45 0 0 0 44.975587,12.653138 11.875,10.45 0 0 1 33.125,22.458606 H 23.75 21.25 11.875 A 11.875,10.45 0 0 1 0.02441375,12.464074 Z"
     id="path900" />
  <path
     style="display:inline;fill:#e8ebed;fill-opacity:1;stroke-width:1.17261"
     d="M 11.875,1.5586059 A 11.875,10.45 0 0 0 0,12.008606 a 11.875,10.45 0 0 0 11.875,10.45 h 9.375 2.5 9.375 A 11.875,10.45 0 0 0 45,12.008606 11.875,10.45 0 0 0 33.125,1.5586059 h -9.375 -2.5 z"
     id="path872"
     inkscape:connector-curvature="0" />
  <path
     style="isolation:isolate;fill:#000000;fill-opacity:0.1;stroke-width:1.17261"
     d="M 11.875,1.5586059 A 11.875,10.45 0 0 0 0,12.008606 11.875,10.45 0 0 0 0.02441375,12.464074 11.875,10.45 0 0 1 11.875,2.658606 h 9.375 2.5 9.375 A 11.875,10.45 0 0 1 44.975586,12.653138 11.875,10.45 0 0 0 45,12.008606 11.875,10.45 0 0 0 33.125,1.5586059 h -9.375 -2.5 z"
     id="path902" />
  <rect
     style="color:#000000;display:none;overflow:visible;visibility:visible;fill:#000000;fill-opacity:0.1;fill-rule:nonzero;stroke:none;stroke-width:1.76471;stroke-opacity:1;marker:none;filter:url(#filter930);enable-background:new"
     id="rect934"
     width="15"
     height="15"
     x="18.999992"
     y="6.5000024"
     ry="7.392344"
     transform="matrix(1,0,0,1.1,0,-0.3)" />
  <rect
     ry="7.392344"
     y="5.5000024"
     x="18.999992"
     height="15"
     width="15"
     id="rect912"
     style="color:#000000;display:none;overflow:visible;visibility:visible;fill:#000000;fill-opacity:0.2;fill-rule:nonzero;stroke:none;stroke-width:1.76471;stroke-opacity:1;marker:none;filter:url(#filter930);enable-background:new"
     transform="matrix(1,0,0,1.1,0,-0.3)" />
  <rect
     style="color:#000000;display:none;overflow:visible;visibility:visible;fill:#f2f2f2;fill-opacity:1;fill-rule:nonzero;stroke:none;stroke-width:1.85084;stroke-opacity:1;marker:none;enable-background:new"
     id="rect3872"
     width="15"
     height="16.5"
     x="18.999992"
     y="5.2000027"
     ry="8.1315784" />
  <path
     style="color:#000000;display:none;overflow:visible;visibility:visible;fill:#ffffff;fill-opacity:0.2;fill-rule:nonzero;stroke:none;stroke-width:1.85084;stroke-opacity:1;marker:none;enable-background:new"
     d="m 26.39259,5.2 c -4.09536,0 -7.39258,3.626942 -7.39258,8.131838 v 0.236324 c 0,0.14586 0.0127,0.287914 0.0195,0.431838 0.20406,-4.301209 3.41029,-7.7 7.37305,-7.7 h 0.21484 c 3.96276,0 7.16899,3.398791 7.37305,7.7 0.007,-0.143924 0.0195,-0.285978 0.0195,-0.431838 V 13.331838 C 33.99995,8.826942 30.70273,5.2 26.60737,5.2 Z"
     id="rect936"
     inkscape:connector-curvature="0" />
</svg>
